STARTFONT 2.1
COMMENT Copyright (C) 1990-1991 EWT Consulting
COMMENT Portions Copyright (C) 1994-1995 Cronyx Ltd.
COMMENT Changes Copyright (C) 1996-1997 by Andrey A. Chernov, Moscow, Russia.
COMMENT Modified by Serge Vakulenko, <vak@cronyx.ru>
COMMENT Changes 1999 by Serge Winitzki.
COMMENT This software may be used, modified, copied, distributed, and sold,
COMMENT in both source and binary form provided that the copyright
COMMENT and these terms are retained. Under no circumstances is the author
COMMENT responsible for the proper functioning of this software, nor does
COMMENT the author assume any responsibility for damages incurred with its use.
FONT -Cronyx-Courier-Medium-R-Normal--14-100-100-100-M-80-KOI8-C
SIZE 10 96 96
FONTBOUNDINGBOX 8 13 0 -2
STARTPROPERTIES 23
DEFAULT_CHAR 32
FONT_ASCENT 11
FONT_DESCENT 2
SPACING "M"
FONTNAME_REGISTRY ""
FOUNDRY "Cronyx"
FAMILY_NAME "Courier"
WEIGHT_NAME "Medium"
SLANT "R"
SETWIDTH_NAME "Normal"
ADD_STYLE_NAME ""
AVERAGE_WIDTH 80
CHARSET_REGISTRY "KOI8"
CHARSET_ENCODING "C"
PIXEL_SIZE 14
POINT_SIZE 100
RESOLUTION_X 100
RESOLUTION_Y 100
COPYRIGHT "Copyright (C) 1990, 1991 EWT Consulting, Portions Copyright (C) 1994 Cronyx Ltd., Portions Copyright (C) 1996-1997 by Andrey A. Chernov, Moscow, Russia."
_XMBDFED_INFO "Edited with xmbdfed 3.8."
_XFREE86_GLYPH_RANGES "4_10 26_27 30_255"
X_HEIGHT 6
CAP_HEIGHT 9
ENDPROPERTIES
CHARS 235
STARTCHAR divide
ENCODING 4
SWIDTH 600 0
DWIDTH 8 0
BBX 7 7 1 0
BITMAP
10
10
00
FE
00
10
10
ENDCHAR
STARTCHAR promille
ENCODING 5
SWIDTH 600 0
DWIDTH 8 0
BBX 7 9 1 0
BITMAP
40
A4
48
10
20
40
A4
DA
24
ENDCHAR
STARTCHAR approx
ENCODING 6
SWIDTH 600 0
DWIDTH 8 0
BBX 7 6 1 0
BITMAP
62
92
8C
62
92
8C
ENDCHAR
STARTCHAR degree
ENCODING 7
SWIDTH 600 0
DWIDTH 8 0
BBX 6 8 1 -2
BITMAP
88
88
88
88
98
EC
80
80
ENDCHAR
STARTCHAR plusminus
ENCODING 8
SWIDTH 600 0
DWIDTH 8 0
BBX 6 6 0 0
BITMAP
10
10
7C
10
10
7C
ENDCHAR
STARTCHAR pilcrow
ENCODING 9
SWIDTH 600 0
DWIDTH 8 0
BBX 7 9 1 0
BITMAP
7E
F4
F4
F4
74
14
14
14
36
ENDCHAR
STARTCHAR ddagger
ENCODING 10
SWIDTH 600 0
DWIDTH 8 0
BBX 7 10 1 0
BITMAP
10
54
FE
54
10
10
54
FE
54
10
ENDCHAR
STARTCHAR lessequal
ENCODING 26
SWIDTH 600 0
DWIDTH 8 0
BBX 4 8 2 0
BITMAP
10
20
40
80
40
20
10
F0
ENDCHAR
STARTCHAR greaterequal
ENCODING 27
SWIDTH 600 0
DWIDTH 8 0
BBX 4 8 2 0
BITMAP
80
40
20
10
20
40
80
F0
ENDCHAR
STARTCHAR currency
ENCODING 30
SWIDTH 600 0
DWIDTH 8 0
BBX 6 6 1 0
BITMAP
84
78
48
48
78
84
ENDCHAR
STARTCHAR twosuperior
ENCODING 31
SWIDTH 600 0
DWIDTH 8 0
BBX 3 5 3 4
BITMAP
40
A0
20
40
E0
ENDCHAR
STARTCHAR space
ENCODING 32
SWIDTH 600 0
DWIDTH 8 0
BBX 0 0 0 0
BITMAP
ENDCHAR
STARTCHAR exclam
ENCODING 33
SWIDTH 600 0
DWIDTH 8 0
BBX 1 9 4 0
BITMAP
80
80
80
80
80
80
80
00
80
ENDCHAR
STARTCHAR quotedbl
ENCODING 34
SWIDTH 600 0
DWIDTH 8 0
BBX 3 3 3 6
BITMAP
A0
A0
A0
ENDCHAR
STARTCHAR numbersign
ENCODING 35
SWIDTH 600 0
DWIDTH 8 0
BBX 7 9 1 0
BITMAP
14
14
7E
28
28
28
FC
50
50
ENDCHAR
STARTCHAR dollar
ENCODING 36
SWIDTH 600 0
DWIDTH 8 0
BBX 5 9 2 0
BITMAP
20
70
88
80
70
08
88
70
20
ENDCHAR
STARTCHAR percent
ENCODING 37
SWIDTH 600 0
DWIDTH 8 0
BBX 7 9 1 0
BITMAP
40
A2
44
08
10
20
44
8A
04
ENDCHAR
STARTCHAR ampersand
ENCODING 38
SWIDTH 600 0
DWIDTH 8 0
BBX 7 9 1 0
BITMAP
30
40
40
20
60
92
94
88
76
ENDCHAR
STARTCHAR quotesingle
ENCODING 39
SWIDTH 600 0
DWIDTH 8 0
BBX 1 3 4 6
BITMAP
80
80
80
ENDCHAR
STARTCHAR parenleft
ENCODING 40
SWIDTH 600 0
DWIDTH 8 0
BBX 3 11 3 -2
BITMAP
20
40
40
80
80
80
80
80
40
40
20
ENDCHAR
STARTCHAR parenright
ENCODING 41
SWIDTH 600 0
DWIDTH 8 0
BBX 3 11 3 -2
BITMAP
80
40
40
20
20
20
20
20
40
40
80
ENDCHAR
STARTCHAR asterisk
ENCODING 42
SWIDTH 600 0
DWIDTH 8 0
BBX 7 5 1 2
BITMAP
6C
38
FE
38
6C
ENDCHAR
STARTCHAR plus
ENCODING 43
SWIDTH 600 0
DWIDTH 8 0
BBX 7 7 1 0
BITMAP
10
10
10
FE
10
10
10
ENDCHAR
STARTCHAR comma
ENCODING 44
SWIDTH 600 0
DWIDTH 8 0
BBX 2 2 3 -1
BITMAP
40
80
ENDCHAR
STARTCHAR hyphen
ENCODING 45
SWIDTH 600 0
DWIDTH 8 0
BBX 4 1 2 3
BITMAP
F0
ENDCHAR
STARTCHAR period
ENCODING 46
SWIDTH 600 0
DWIDTH 8 0
BBX 1 1 4 0
BITMAP
80
ENDCHAR
STARTCHAR slash
ENCODING 47
SWIDTH 600 0
DWIDTH 8 0
BBX 7 7 1 1
BITMAP
02
04
08
10
20
40
80
ENDCHAR
STARTCHAR zero
ENCODING 48
SWIDTH 600 0
DWIDTH 8 0
BBX 5 9 2 0
BITMAP
70
88
88
88
88
88
88
88
70
ENDCHAR
STARTCHAR one
ENCODING 49
SWIDTH 600 0
DWIDTH 8 0
BBX 5 9 2 0
BITMAP
20
E0
20
20
20
20
20
20
F8
ENDCHAR
STARTCHAR two
ENCODING 50
SWIDTH 600 0
DWIDTH 8 0
BBX 5 9 2 0
BITMAP
70
88
08
08
10
20
40
80
F8
ENDCHAR
STARTCHAR three
ENCODING 51
SWIDTH 600 0
DWIDTH 8 0
BBX 5 9 2 0
BITMAP
70
88
08
08
30
08
08
88
70
ENDCHAR
STARTCHAR four
ENCODING 52
SWIDTH 600 0
DWIDTH 8 0
BBX 5 9 2 0
BITMAP
10
30
30
50
50
90
F8
10
38
ENDCHAR
STARTCHAR five
ENCODING 53
SWIDTH 600 0
DWIDTH 8 0
BBX 5 9 2 0
BITMAP
F8
80
80
80
F0
08
08
88
70
ENDCHAR
STARTCHAR six
ENCODING 54
SWIDTH 600 0
DWIDTH 8 0
BBX 5 9 2 0
BITMAP
30
40
80
80
F0
88
88
88
70
ENDCHAR
STARTCHAR seven
ENCODING 55
SWIDTH 600 0
DWIDTH 8 0
BBX 5 9 2 0
BITMAP
F8
88
08
10
10
20
20
40
40
ENDCHAR
STARTCHAR eight
ENCODING 56
SWIDTH 600 0
DWIDTH 8 0
BBX 5 9 2 0
BITMAP
70
88
88
88
70
88
88
88
70
ENDCHAR
STARTCHAR nine
ENCODING 57
SWIDTH 600 0
DWIDTH 8 0
BBX 5 9 2 0
BITMAP
70
88
88
88
78
08
08
10
60
ENDCHAR
STARTCHAR colon
ENCODING 58
SWIDTH 600 0
DWIDTH 8 0
BBX 1 6 4 0
BITMAP
80
00
00
00
00
80
ENDCHAR
STARTCHAR semicolon
ENCODING 59
SWIDTH 600 0
DWIDTH 8 0
BBX 2 7 3 -1
BITMAP
40
00
00
00
00
40
80
ENDCHAR
STARTCHAR less
ENCODING 60
SWIDTH 600 0
DWIDTH 8 0
BBX 4 7 2 0
BITMAP
10
20
40
80
40
20
10
ENDCHAR
STARTCHAR equal
ENCODING 61
SWIDTH 600 0
DWIDTH 8 0
BBX 5 3 2 3
BITMAP
F8
00
F8
ENDCHAR
STARTCHAR greater
ENCODING 62
SWIDTH 600 0
DWIDTH 8 0
BBX 4 7 2 0
BITMAP
80
40
20
10
20
40
80
ENDCHAR
STARTCHAR question
ENCODING 63
SWIDTH 600 0
DWIDTH 8 0
BBX 5 9 2 0
BITMAP
70
88
08
08
10
20
20
00
20
ENDCHAR
STARTCHAR at
ENCODING 64
SWIDTH 600 0
DWIDTH 8 0
BBX 7 9 1 0
BITMAP
3C
42
9A
AA
AA
AA
9C
40
38
ENDCHAR
STARTCHAR A
ENCODING 65
SWIDTH 600 0
DWIDTH 8 0
BBX 7 9 1 0
BITMAP
30
10
10
28
28
44
7C
44
EE
ENDCHAR
STARTCHAR B
ENCODING 66
SWIDTH 600 0
DWIDTH 8 0
BBX 7 9 1 0
BITMAP
FC
42
42
42
7C
42
42
42
FC
ENDCHAR
STARTCHAR C
ENCODING 67
SWIDTH 600 0
DWIDTH 8 0
BBX 7 9 1 0
BITMAP
3C
42
80
80
80
80
80
42
3C
ENDCHAR
STARTCHAR D
ENCODING 68
SWIDTH 600 0
DWIDTH 8 0
BBX 7 9 1 0
BITMAP
F8
44
42
42
42
42
42
44
F8
ENDCHAR
STARTCHAR E
ENCODING 69
SWIDTH 600 0
DWIDTH 8 0
BBX 7 9 1 0
BITMAP
FE
42
40
48
78
48
40
42
FE
ENDCHAR
STARTCHAR F
ENCODING 70
SWIDTH 600 0
DWIDTH 8 0
BBX 7 9 1 0
BITMAP
FE
42
40
48
78
48
40
40
F0
ENDCHAR
STARTCHAR G
ENCODING 71
SWIDTH 600 0
DWIDTH 8 0
BBX 7 9 1 0
BITMAP
3C
42
80
80
80
8E
82
42
3C
ENDCHAR
STARTCHAR H
ENCODING 72
SWIDTH 600 0
DWIDTH 8 0
BBX 7 9 1 0
BITMAP
EE
44
44
44
7C
44
44
44
EE
ENDCHAR
STARTCHAR I
ENCODING 73
SWIDTH 600 0
DWIDTH 8 0
BBX 5 9 2 0
BITMAP
F8
20
20
20
20
20
20
20
F8
ENDCHAR
STARTCHAR J
ENCODING 74
SWIDTH 600 0
DWIDTH 8 0
BBX 6 9 1 0
BITMAP
3C
08
08
08
08
08
88
88
70
ENDCHAR
STARTCHAR K
ENCODING 75
SWIDTH 600 0
DWIDTH 8 0
BBX 7 9 1 0
BITMAP
E6
44
48
48
50
70
48
44
E6
ENDCHAR
STARTCHAR L
ENCODING 76
SWIDTH 600 0
DWIDTH 8 0
BBX 7 9 1 0
BITMAP
F8
20
20
20
20
20
20
22
FE
ENDCHAR
STARTCHAR M
ENCODING 77
SWIDTH 600 0
DWIDTH 8 0
BBX 7 9 1 0
BITMAP
C6
44
6C
6C
54
54
44
44
EE
ENDCHAR
STARTCHAR N
ENCODING 78
SWIDTH 600 0
DWIDTH 8 0
BBX 7 9 1 0
BITMAP
CE
44
64
64
54
4C
4C
44
E4
ENDCHAR
STARTCHAR O
ENCODING 79
SWIDTH 600 0
DWIDTH 8 0
BBX 7 9 1 0
BITMAP
38
44
82
82
82
82
82
44
38
ENDCHAR
STARTCHAR P
ENCODING 80
SWIDTH 600 0
DWIDTH 8 0
BBX 7 9 1 0
BITMAP
FC
42
42
42
7C
40
40
40
F0
ENDCHAR
STARTCHAR Q
ENCODING 81
SWIDTH 600 0
DWIDTH 8 0
BBX 7 10 1 -1
BITMAP
38
44
82
82
82
82
82
44
38
36
ENDCHAR
STARTCHAR R
ENCODING 82
SWIDTH 600 0
DWIDTH 8 0
BBX 7 9 1 0
BITMAP
FC
42
42
42
7C
48
48
44
E6
ENDCHAR
STARTCHAR S
ENCODING 83
SWIDTH 600 0
DWIDTH 8 0
BBX 7 9 1 0
BITMAP
7C
82
80
80
7C
02
02
82
7C
ENDCHAR
STARTCHAR T
ENCODING 84
SWIDTH 600 0
DWIDTH 8 0
BBX 7 9 1 0
BITMAP
FE
92
10
10
10
10
10
10
38
ENDCHAR
STARTCHAR U
ENCODING 85
SWIDTH 600 0
DWIDTH 8 0
BBX 7 9 1 0
BITMAP
EE
44
44
44
44
44
44
44
38
ENDCHAR
STARTCHAR V
ENCODING 86
SWIDTH 600 0
DWIDTH 8 0
BBX 7 9 1 0
BITMAP
EE
44
44
44
28
28
28
10
10
ENDCHAR
STARTCHAR W
ENCODING 87
SWIDTH 600 0
DWIDTH 8 0
BBX 7 9 1 0
BITMAP
EE
44
44
44
54
54
54
28
28
ENDCHAR
STARTCHAR X
ENCODING 88
SWIDTH 600 0
DWIDTH 8 0
BBX 7 9 1 0
BITMAP
EE
44
28
28
10
28
28
44
EE
ENDCHAR
STARTCHAR Y
ENCODING 89
SWIDTH 600 0
DWIDTH 8 0
BBX 7 9 1 0
BITMAP
EE
44
44
28
28
10
10
10
38
ENDCHAR
STARTCHAR Z
ENCODING 90
SWIDTH 600 0
DWIDTH 8 0
BBX 7 9 1 0
BITMAP
FE
84
08
08
10
20
20
42
FE
ENDCHAR
STARTCHAR bracketleft
ENCODING 91
SWIDTH 600 0
DWIDTH 8 0
BBX 3 11 3 -2
BITMAP
E0
80
80
80
80
80
80
80
80
80
E0
ENDCHAR
STARTCHAR backslash
ENCODING 92
SWIDTH 600 0
DWIDTH 8 0
BBX 7 7 1 1
BITMAP
80
40
20
10
08
04
02
ENDCHAR
STARTCHAR bracketright
ENCODING 93
SWIDTH 600 0
DWIDTH 8 0
BBX 3 10 3 -2
BITMAP
E0
20
20
20
20
20
20
20
20
E0
ENDCHAR
STARTCHAR asciicircum
ENCODING 94
SWIDTH 600 0
DWIDTH 8 0
BBX 5 3 2 7
BITMAP
20
50
88
ENDCHAR
STARTCHAR underscore
ENCODING 95
SWIDTH 600 0
DWIDTH 8 0
BBX 8 1 0 -2
BITMAP
FF
ENDCHAR
STARTCHAR grave
ENCODING 96
SWIDTH 600 0
DWIDTH 8 0
BBX 2 2 3 7
BITMAP
80
40
ENDCHAR
STARTCHAR a
ENCODING 97
SWIDTH 600 0
DWIDTH 8 0
BBX 7 6 1 0
BITMAP
78
04
7C
84
84
7A
ENDCHAR
STARTCHAR b
ENCODING 98
SWIDTH 600 0
DWIDTH 8 0
BBX 7 9 1 0
BITMAP
C0
40
40
7C
42
42
42
42
FC
ENDCHAR
STARTCHAR c
ENCODING 99
SWIDTH 600 0
DWIDTH 8 0
BBX 7 6 1 0
BITMAP
7C
82
80
80
82
7C
ENDCHAR
STARTCHAR d
ENCODING 100
SWIDTH 600 0
DWIDTH 8 0
BBX 7 9 1 0
BITMAP
0C
04
04
7C
84
84
84
84
7E
ENDCHAR
STARTCHAR e
ENCODING 101
SWIDTH 600 0
DWIDTH 8 0
BBX 7 6 1 0
BITMAP
7C
82
FE
80
82
7C
ENDCHAR
STARTCHAR f
ENCODING 102
SWIDTH 600 0
DWIDTH 8 0
BBX 4 9 2 0
BITMAP
30
40
40
F0
40
40
40
40
F0
ENDCHAR
STARTCHAR g
ENCODING 103
SWIDTH 600 0
DWIDTH 8 0
BBX 7 8 1 -2
BITMAP
7E
84
84
84
7C
04
04
78
ENDCHAR
STARTCHAR h
ENCODING 104
SWIDTH 600 0
DWIDTH 8 0
BBX 7 9 1 0
BITMAP
C0
40
40
58
64
44
44
44
EE
ENDCHAR
STARTCHAR i
ENCODING 105
SWIDTH 600 0
DWIDTH 8 0
BBX 5 9 2 0
BITMAP
20
00
00
E0
20
20
20
20
F8
ENDCHAR
STARTCHAR j
ENCODING 106
SWIDTH 600 0
DWIDTH 8 0
BBX 4 11 2 -2
BITMAP
10
00
00
F0
10
10
10
10
10
10
E0
ENDCHAR
STARTCHAR k
ENCODING 107
SWIDTH 600 0
DWIDTH 8 0
BBX 7 9 1 0
BITMAP
C0
40
40
4C
48
50
70
48
C6
ENDCHAR
STARTCHAR l
ENCODING 108
SWIDTH 600 0
DWIDTH 8 0
BBX 5 9 2 0
BITMAP
60
20
20
20
20
20
20
20
F8
ENDCHAR
STARTCHAR m
ENCODING 109
SWIDTH 600 0
DWIDTH 8 0
BBX 7 6 1 0
BITMAP
E8
54
54
54
54
D6
ENDCHAR
STARTCHAR n
ENCODING 110
SWIDTH 600 0
DWIDTH 8 0
BBX 7 6 1 0
BITMAP
D8
64
44
44
44
EE
ENDCHAR
STARTCHAR o
ENCODING 111
SWIDTH 600 0
DWIDTH 8 0
BBX 7 6 1 0
BITMAP
7C
82
82
82
82
7C
ENDCHAR
STARTCHAR p
ENCODING 112
SWIDTH 600 0
DWIDTH 8 0
BBX 7 8 1 -2
BITMAP
FC
42
42
42
42
7C
40
E0
ENDCHAR
STARTCHAR q
ENCODING 113
SWIDTH 600 0
DWIDTH 8 0
BBX 7 8 1 -2
BITMAP
7E
84
84
84
84
7C
04
0E
ENDCHAR
STARTCHAR r
ENCODING 114
SWIDTH 600 0
DWIDTH 8 0
BBX 7 6 1 0
BITMAP
EC
32
20
20
20
F8
ENDCHAR
STARTCHAR s
ENCODING 115
SWIDTH 600 0
DWIDTH 8 0
BBX 7 6 1 0
BITMAP
7C
82
70
0C
82
7C
ENDCHAR
STARTCHAR t
ENCODING 116
SWIDTH 600 0
DWIDTH 8 0
BBX 5 8 2 0
BITMAP
40
40
F0
40
40
40
48
30
ENDCHAR
STARTCHAR u
ENCODING 117
SWIDTH 600 0
DWIDTH 8 0
BBX 7 6 1 0
BITMAP
CC
44
44
44
4C
36
ENDCHAR
STARTCHAR v
ENCODING 118
SWIDTH 600 0
DWIDTH 8 0
BBX 7 6 1 0
BITMAP
EE
44
44
28
28
10
ENDCHAR
STARTCHAR w
ENCODING 119
SWIDTH 600 0
DWIDTH 8 0
BBX 7 6 1 0
BITMAP
EE
44
54
54
28
28
ENDCHAR
STARTCHAR x
ENCODING 120
SWIDTH 600 0
DWIDTH 8 0
BBX 7 6 1 0
BITMAP
EE
44
38
38
44
EE
ENDCHAR
STARTCHAR y
ENCODING 121
SWIDTH 600 0
DWIDTH 8 0
BBX 7 8 1 -2
BITMAP
EE
44
44
28
28
10
10
60
ENDCHAR
STARTCHAR z
ENCODING 122
SWIDTH 600 0
DWIDTH 8 0
BBX 6 6 1 0
BITMAP
FC
88
10
20
44
FC
ENDCHAR
STARTCHAR braceleft
ENCODING 123
SWIDTH 600 0
DWIDTH 8 0
BBX 5 11 2 -2
BITMAP
18
20
20
20
20
C0
20
20
20
20
18
ENDCHAR
STARTCHAR bar
ENCODING 124
SWIDTH 600 0
DWIDTH 8 0
BBX 1 12 4 -2
BITMAP
80
80
80
80
80
80
80
80
80
80
80
80
ENDCHAR
STARTCHAR braceright
ENCODING 125
SWIDTH 600 0
DWIDTH 8 0
BBX 5 11 2 -2
BITMAP
C0
20
20
20
20
18
20
20
20
20
C0
ENDCHAR
STARTCHAR asciitilde
ENCODING 126
SWIDTH 600 0
DWIDTH 8 0
BBX 7 3 1 5
BITMAP
62
92
8C
ENDCHAR
STARTCHAR not
ENCODING 127
SWIDTH 600 0
DWIDTH 8 0
BBX 4 2 2 2
BITMAP
F0
10
ENDCHAR
STARTCHAR afii10051
ENCODING 128
SWIDTH 600 0
DWIDTH 8 0
BBX 7 9 1 0
BITMAP
F8
A8
20
2C
32
22
22
2A
64
ENDCHAR
STARTCHAR afii10052
ENCODING 129
SWIDTH 600 0
DWIDTH 8 0
BBX 7 11 1 0
BITMAP
08
10
FE
42
40
40
40
40
40
40
F0
ENDCHAR
STARTCHAR cedilla
ENCODING 130
SWIDTH 600 0
DWIDTH 8 0
BBX 3 3 3 -1
BITMAP
40
20
C0
ENDCHAR
STARTCHAR afii10100
ENCODING 131
SWIDTH 600 0
DWIDTH 8 0
BBX 6 8 1 0
BITMAP
10
20
FC
44
40
40
40
E0
ENDCHAR
STARTCHAR quotedblbase
ENCODING 132
SWIDTH 600 0
DWIDTH 8 0
BBX 4 3 2 -1
BITMAP
50
50
A0
ENDCHAR
STARTCHAR ellipsis
ENCODING 133
SWIDTH 600 0
DWIDTH 8 0
BBX 5 1 2 0
BITMAP
A8
ENDCHAR
STARTCHAR dagger
ENCODING 134
SWIDTH 600 0
DWIDTH 8 0
BBX 7 10 1 0
BITMAP
10
38
10
54
FE
54
10
10
10
10
ENDCHAR
STARTCHAR section
ENCODING 135
SWIDTH 600 0
DWIDTH 8 0
BBX 5 10 2 0
BITMAP
70
88
80
70
88
88
70
08
88
70
ENDCHAR
STARTCHAR Euro
ENCODING 136
SWIDTH 600 0
DWIDTH 8 0
BBX 8 9 0 0
BITMAP
1E
21
40
F8
40
F8
40
21
1E
ENDCHAR
STARTCHAR dieresis
ENCODING 137
SWIDTH 600 0
DWIDTH 8 0
BBX 3 2 3 7
BITMAP
A0
A0
ENDCHAR
STARTCHAR afii10058
ENCODING 138
SWIDTH 600 0
DWIDTH 8 0
BBX 6 9 1 0
BITMAP
F0
50
50
50
58
54
54
54
98
ENDCHAR
STARTCHAR guilsinglleft
ENCODING 139
SWIDTH 600 0
DWIDTH 8 0
BBX 5 7 1 0
BITMAP
08
10
20
C0
20
10
08
ENDCHAR
STARTCHAR afii10059
ENCODING 140
SWIDTH 600 0
DWIDTH 8 0
BBX 7 9 1 0
BITMAP
DC
48
48
48
7C
4A
4A
4A
DC
ENDCHAR
STARTCHAR afii10061
ENCODING 141
SWIDTH 600 0
DWIDTH 8 0
BBX 7 11 1 0
BITMAP
0C
08
D6
44
48
48
50
70
48
44
E6
ENDCHAR
STARTCHAR afii10060
ENCODING 142
SWIDTH 600 0
DWIDTH 8 0
BBX 7 9 1 0
BITMAP
F8
A8
20
2C
32
22
22
22
76
ENDCHAR
STARTCHAR afii10145
ENCODING 143
SWIDTH 600 0
DWIDTH 8 0
BBX 7 10 1 -1
BITMAP
EE
44
44
44
44
44
44
44
FE
10
ENDCHAR
STARTCHAR afii10099
ENCODING 144
SWIDTH 600 0
DWIDTH 8 0
BBX 7 11 1 -2
BITMAP
20
F8
20
2C
32
22
22
22
22
04
08
ENDCHAR
STARTCHAR quoteleft
ENCODING 145
SWIDTH 600 0
DWIDTH 8 0
BBX 2 3 3 6
BITMAP
40
40
80
ENDCHAR
STARTCHAR quoteright
ENCODING 146
SWIDTH 600 0
DWIDTH 8 0
BBX 2 3 4 6
BITMAP
80
80
40
ENDCHAR
STARTCHAR quotedblleft
ENCODING 147
SWIDTH 600 0
DWIDTH 8 0
BBX 4 3 2 6
BITMAP
50
50
A0
ENDCHAR
STARTCHAR quotedblright
ENCODING 148
SWIDTH 600 0
DWIDTH 8 0
BBX 4 3 3 6
BITMAP
A0
A0
50
ENDCHAR
STARTCHAR bullet
ENCODING 149
SWIDTH 600 0
DWIDTH 8 0
BBX 5 5 2 2
BITMAP
70
F8
F8
F8
70
ENDCHAR
STARTCHAR endash
ENCODING 150
SWIDTH 600 0
DWIDTH 8 0
BBX 6 1 1 3
BITMAP
FC
ENDCHAR
STARTCHAR emdash
ENCODING 151
SWIDTH 600 0
DWIDTH 8 0
BBX 8 1 0 3
BITMAP
FF
ENDCHAR
STARTCHAR sterling
ENCODING 152
SWIDTH 600 0
DWIDTH 8 0
BBX 7 9 0 0
BITMAP
18
24
20
20
F8
20
70
A8
C6
ENDCHAR
STARTCHAR periodcentered
ENCODING 153
SWIDTH 600 0
DWIDTH 8 0
BBX 1 1 4 3
BITMAP
80
ENDCHAR
STARTCHAR afii10106
ENCODING 154
SWIDTH 600 0
DWIDTH 8 0
BBX 7 6 1 0
BITMAP
78
28
2C
2A
AA
CC
ENDCHAR
STARTCHAR guilsinglright
ENCODING 155
SWIDTH 600 0
DWIDTH 8 0
BBX 5 7 3 0
BITMAP
80
40
20
18
20
40
80
ENDCHAR
STARTCHAR afii10107
ENCODING 156
SWIDTH 600 0
DWIDTH 8 0
BBX 7 6 1 0
BITMAP
DC
48
7C
4A
4A
DC
ENDCHAR
STARTCHAR afii10109
ENCODING 157
SWIDTH 600 0
DWIDTH 8 0
BBX 6 8 1 0
BITMAP
18
10
EC
48
50
70
48
EC
ENDCHAR
STARTCHAR afii10108
ENCODING 158
SWIDTH 600 0
DWIDTH 8 0
BBX 7 9 1 0
BITMAP
40
E0
40
58
64
44
44
44
EE
ENDCHAR
STARTCHAR afii10193
ENCODING 159
SWIDTH 600 0
DWIDTH 8 0
BBX 7 7 1 -1
BITMAP
EE
44
44
44
44
FE
10
ENDCHAR
STARTCHAR space
ENCODING 160
SWIDTH 600 0
DWIDTH 8 0
BBX 0 0 0 0
BITMAP
ENDCHAR
STARTCHAR afii10196
ENCODING 161
SWIDTH 600 0
DWIDTH 8 0
BBX 7 6 1 0
BITMAP
C6
4E
48
28
28
10
ENDCHAR
STARTCHAR afii10194
ENCODING 162
SWIDTH 600 0
DWIDTH 8 0
BBX 7 8 1 0
BITMAP
60
20
F8
A0
3C
22
22
7C
ENDCHAR
STARTCHAR afii10071
ENCODING 163
SWIDTH 600 0
DWIDTH 8 0
BBX 7 8 1 0
BITMAP
6C
00
7C
82
FE
80
82
7C
ENDCHAR
STARTCHAR afii10101
ENCODING 164
SWIDTH 600 0
DWIDTH 8 0
BBX 7 6 1 0
BITMAP
7C
82
F0
80
82
7C
ENDCHAR
STARTCHAR afii10102
ENCODING 165
SWIDTH 600 0
DWIDTH 8 0
BBX 7 6 1 0
BITMAP
7C
82
70
0C
82
7C
ENDCHAR
STARTCHAR afii10103
ENCODING 166
SWIDTH 600 0
DWIDTH 8 0
BBX 5 9 2 0
BITMAP
20
00
00
60
20
20
20
20
F8
ENDCHAR
STARTCHAR afii10104
ENCODING 167
SWIDTH 600 0
DWIDTH 8 0
BBX 5 9 2 0
BITMAP
50
00
00
60
20
20
20
20
F8
ENDCHAR
STARTCHAR afii10105
ENCODING 168
SWIDTH 600 0
DWIDTH 8 0
BBX 4 11 2 -2
BITMAP
10
00
00
F0
10
10
10
10
10
10
E0
ENDCHAR
STARTCHAR registered
ENCODING 169
SWIDTH 600 0
DWIDTH 8 0
BBX 7 8 1 1
BITMAP
38
44
B2
AA
B2
AA
44
38
ENDCHAR
STARTCHAR trademark
ENCODING 170
SWIDTH 600 0
DWIDTH 8 0
BBX 7 4 1 5
BITMAP
F2
5E
52
52
ENDCHAR
STARTCHAR guillemotleft
ENCODING 171
SWIDTH 600 0
DWIDTH 8 0
BBX 6 7 1 0
BITMAP
14
28
50
A0
50
28
14
ENDCHAR
STARTCHAR afii10195
ENCODING 172
SWIDTH 600 0
DWIDTH 8 0
BBX 7 6 1 0
BITMAP
7C
82
FE
82
82
7C
ENDCHAR
STARTCHAR afii10098
ENCODING 173
SWIDTH 600 0
DWIDTH 8 0
BBX 6 7 1 0
BITMAP
04
FC
40
40
40
40
E0
ENDCHAR
STARTCHAR afii10110
ENCODING 174
SWIDTH 600 0
DWIDTH 8 0
BBX 7 11 1 -2
BITMAP
28
10
00
EE
44
44
28
28
10
90
60
ENDCHAR
STARTCHAR acute
ENCODING 175
SWIDTH 600 0
DWIDTH 8 0
BBX 3 3 3 6
BITMAP
60
40
80
ENDCHAR
STARTCHAR degree
ENCODING 176
SWIDTH 600 0
DWIDTH 8 0
BBX 3 3 3 6
BITMAP
40
A0
40
ENDCHAR
STARTCHAR afii10148
ENCODING 177
SWIDTH 600 0
DWIDTH 8 0
BBX 7 9 1 0
BITMAP
C0
46
4E
48
28
28
28
10
10
ENDCHAR
STARTCHAR afii10146
ENCODING 178
SWIDTH 600 0
DWIDTH 8 0
BBX 7 11 1 0
BITMAP
60
20
F8
A8
A0
20
3C
22
22
22
7C
ENDCHAR
STARTCHAR afii10023
ENCODING 179
SWIDTH 600 0
DWIDTH 8 0
BBX 7 11 1 0
BITMAP
6C
00
FE
42
40
48
78
48
40
42
FE
ENDCHAR
STARTCHAR afii10053
ENCODING 180
SWIDTH 600 0
DWIDTH 8 0
BBX 6 9 1 0
BITMAP
38
44
80
80
F8
80
80
44
38
ENDCHAR
STARTCHAR afii10054
ENCODING 181
SWIDTH 600 0
DWIDTH 8 0
BBX 7 9 1 0
BITMAP
7C
82
80
80
7C
02
02
82
7C
ENDCHAR
STARTCHAR afii10055
ENCODING 182
SWIDTH 600 0
DWIDTH 8 0
BBX 5 9 2 0
BITMAP
F8
20
20
20
20
20
20
20
F8
ENDCHAR
STARTCHAR afii10056
ENCODING 183
SWIDTH 600 0
DWIDTH 8 0
BBX 5 11 2 0
BITMAP
50
00
F8
20
20
20
20
20
20
20
F8
ENDCHAR
STARTCHAR afii10057
ENCODING 184
SWIDTH 600 0
DWIDTH 8 0
BBX 6 9 1 0
BITMAP
3C
08
08
08
08
08
88
88
70
ENDCHAR
STARTCHAR afii61352
ENCODING 185
SWIDTH 600 0
DWIDTH 8 0
BBX 7 9 1 0
BITMAP
9E
8A
CE
C8
AE
98
98
88
C8
ENDCHAR
STARTCHAR cent
ENCODING 186
SWIDTH 600 0
DWIDTH 8 0
BBX 7 8 1 -1
BITMAP
10
7C
92
90
90
92
7C
10
ENDCHAR
STARTCHAR guillemotright
ENCODING 187
SWIDTH 600 0
DWIDTH 8 0
BBX 6 7 1 0
BITMAP
A0
50
28
14
28
50
A0
ENDCHAR
STARTCHAR afii10147
ENCODING 188
SWIDTH 600 0
DWIDTH 8 0
BBX 7 9 1 0
BITMAP
38
44
82
82
FE
82
82
44
38
ENDCHAR
STARTCHAR afii10050
ENCODING 189
SWIDTH 600 0
DWIDTH 8 0
BBX 7 10 1 0
BITMAP
02
FE
40
40
40
40
40
40
40
F0
ENDCHAR
STARTCHAR afii10062
ENCODING 190
SWIDTH 600 0
DWIDTH 8 0
BBX 7 11 1 0
BITMAP
28
10
EE
44
44
28
28
10
10
90
60
ENDCHAR
STARTCHAR copyright
ENCODING 191
SWIDTH 600 0
DWIDTH 8 0
BBX 7 8 1 1
BITMAP
38
44
9A
A2
A2
9A
44
38
ENDCHAR
STARTCHAR afii10096
ENCODING 192
SWIDTH 600 0
DWIDTH 8 0
BBX 8 6 0 0
BITMAP
EE
51
71
51
51
EE
ENDCHAR
STARTCHAR afii10065
ENCODING 193
SWIDTH 600 0
DWIDTH 8 0
BBX 7 6 1 0
BITMAP
78
04
7C
84
84
7A
ENDCHAR
STARTCHAR afii10066
ENCODING 194
SWIDTH 600 0
DWIDTH 8 0
BBX 6 9 2 0
BITMAP
04
78
80
B8
C4
84
84
84
78
ENDCHAR
STARTCHAR afii10088
ENCODING 195
SWIDTH 600 0
DWIDTH 8 0
BBX 7 7 1 -1
BITMAP
EE
44
44
44
44
FE
02
ENDCHAR
STARTCHAR afii10069
ENCODING 196
SWIDTH 600 0
DWIDTH 8 0
BBX 7 7 1 -1
BITMAP
7E
24
24
24
44
FE
82
ENDCHAR
STARTCHAR afii10070
ENCODING 197
SWIDTH 600 0
DWIDTH 8 0
BBX 7 6 1 0
BITMAP
7C
82
FE
80
82
7C
ENDCHAR
STARTCHAR afii10086
ENCODING 198
SWIDTH 600 0
DWIDTH 8 0
BBX 7 10 1 -2
BITMAP
38
10
7C
92
92
92
92
7C
10
38
ENDCHAR
STARTCHAR afii10068
ENCODING 199
SWIDTH 600 0
DWIDTH 8 0
BBX 6 6 1 0
BITMAP
FC
44
40
40
40
E0
ENDCHAR
STARTCHAR afii10087
ENCODING 200
SWIDTH 600 0
DWIDTH 8 0
BBX 7 6 1 0
BITMAP
EE
44
38
28
44
EE
ENDCHAR
STARTCHAR afii10074
ENCODING 201
SWIDTH 600 0
DWIDTH 8 0
BBX 7 6 1 0
BITMAP
EE
44
4C
54
64
EE
ENDCHAR
STARTCHAR afii10075
ENCODING 202
SWIDTH 600 0
DWIDTH 8 0
BBX 7 8 1 0
BITMAP
38
00
EE
44
4C
54
64
EE
ENDCHAR
STARTCHAR afii10076
ENCODING 203
SWIDTH 600 0
DWIDTH 8 0
BBX 6 6 1 0
BITMAP
EC
48
50
70
48
EC
ENDCHAR
STARTCHAR afii10077
ENCODING 204
SWIDTH 600 0
DWIDTH 8 0
BBX 7 6 1 0
BITMAP
7E
24
24
24
A4
CE
ENDCHAR
STARTCHAR afii10078
ENCODING 205
SWIDTH 600 0
DWIDTH 8 0
BBX 7 6 1 0
BITMAP
C6
6C
54
54
44
EE
ENDCHAR
STARTCHAR afii10079
ENCODING 206
SWIDTH 600 0
DWIDTH 8 0
BBX 7 6 1 0
BITMAP
EE
44
7C
44
44
EE
ENDCHAR
STARTCHAR afii10080
ENCODING 207
SWIDTH 600 0
DWIDTH 8 0
BBX 7 6 1 0
BITMAP
7C
82
82
82
82
7C
ENDCHAR
STARTCHAR afii10081
ENCODING 208
SWIDTH 600 0
DWIDTH 8 0
BBX 7 6 1 0
BITMAP
FE
44
44
44
44
EE
ENDCHAR
STARTCHAR afii10097
ENCODING 209
SWIDTH 600 0
DWIDTH 8 0
BBX 7 6 1 0
BITMAP
3E
44
44
3C
24
CE
ENDCHAR
STARTCHAR afii10082
ENCODING 210
SWIDTH 600 0
DWIDTH 8 0
BBX 7 8 1 -2
BITMAP
FC
42
42
42
42
7C
40
E0
ENDCHAR
STARTCHAR afii10083
ENCODING 211
SWIDTH 600 0
DWIDTH 8 0
BBX 7 6 1 0
BITMAP
7C
82
80
80
82
7C
ENDCHAR
STARTCHAR afii10084
ENCODING 212
SWIDTH 600 0
DWIDTH 8 0
BBX 7 6 1 0
BITMAP
FE
92
10
10
10
38
ENDCHAR
STARTCHAR afii10085
ENCODING 213
SWIDTH 600 0
DWIDTH 8 0
BBX 7 8 1 -2
BITMAP
EE
44
44
28
28
10
90
60
ENDCHAR
STARTCHAR afii10072
ENCODING 214
SWIDTH 600 0
DWIDTH 8 0
BBX 7 6 1 0
BITMAP
D6
54
38
54
54
D6
ENDCHAR
STARTCHAR afii10067
ENCODING 215
SWIDTH 600 0
DWIDTH 8 0
BBX 7 6 1 0
BITMAP
FC
42
7C
42
42
FC
ENDCHAR
STARTCHAR afii10094
ENCODING 216
SWIDTH 600 0
DWIDTH 8 0
BBX 6 6 1 0
BITMAP
E0
40
78
44
44
F8
ENDCHAR
STARTCHAR afii10093
ENCODING 217
SWIDTH 600 0
DWIDTH 8 0
BBX 8 6 0 0
BITMAP
E7
42
72
4A
4A
F7
ENDCHAR
STARTCHAR afii10073
ENCODING 218
SWIDTH 600 0
DWIDTH 8 0
BBX 7 6 1 0
BITMAP
FC
82
1C
02
82
7C
ENDCHAR
STARTCHAR afii10090
ENCODING 219
SWIDTH 600 0
DWIDTH 8 0
BBX 7 6 1 0
BITMAP
D6
54
54
54
54
FE
ENDCHAR
STARTCHAR afii10095
ENCODING 220
SWIDTH 600 0
DWIDTH 8 0
BBX 7 6 1 0
BITMAP
7C
82
1E
02
82
7C
ENDCHAR
STARTCHAR afii10091
ENCODING 221
SWIDTH 600 0
DWIDTH 8 0
BBX 7 7 1 -1
BITMAP
D6
54
54
54
54
FE
02
ENDCHAR
STARTCHAR afii10089
ENCODING 222
SWIDTH 600 0
DWIDTH 8 0
BBX 7 6 1 0
BITMAP
EE
44
4C
34
04
0E
ENDCHAR
STARTCHAR afii10092
ENCODING 223
SWIDTH 600 0
DWIDTH 8 0
BBX 7 6 1 0
BITMAP
F0
A0
3C
22
22
7C
ENDCHAR
STARTCHAR afii10048
ENCODING 224
SWIDTH 600 0
DWIDTH 8 0
BBX 8 9 0 0
BITMAP
EE
51
51
51
71
51
51
51
EE
ENDCHAR
STARTCHAR afii10017
ENCODING 225
SWIDTH 600 0
DWIDTH 8 0
BBX 7 9 1 0
BITMAP
10
10
10
28
28
44
7C
44
EE
ENDCHAR
STARTCHAR afii10018
ENCODING 226
SWIDTH 600 0
DWIDTH 8 0
BBX 7 9 1 0
BITMAP
FE
42
40
40
7C
42
42
42
FC
ENDCHAR
STARTCHAR afii10040
ENCODING 227
SWIDTH 600 0
DWIDTH 8 0
BBX 7 10 1 -1
BITMAP
EE
44
44
44
44
44
44
44
FE
02
ENDCHAR
STARTCHAR afii10021
ENCODING 228
SWIDTH 600 0
DWIDTH 8 0
BBX 7 10 1 -1
BITMAP
7E
24
24
24
24
24
24
44
FE
82
ENDCHAR
STARTCHAR afii10022
ENCODING 229
SWIDTH 600 0
DWIDTH 8 0
BBX 7 9 1 0
BITMAP
FE
42
40
48
78
48
40
42
FE
ENDCHAR
STARTCHAR afii10038
ENCODING 230
SWIDTH 600 0
DWIDTH 8 0
BBX 7 10 1 0
BITMAP
10
38
54
92
92
92
92
54
38
10
ENDCHAR
STARTCHAR afii10020
ENCODING 231
SWIDTH 600 0
DWIDTH 8 0
BBX 7 9 1 0
BITMAP
FE
42
40
40
40
40
40
40
F0
ENDCHAR
STARTCHAR afii10039
ENCODING 232
SWIDTH 600 0
DWIDTH 8 0
BBX 7 9 1 0
BITMAP
EE
44
28
28
10
28
28
44
EE
ENDCHAR
STARTCHAR afii10026
ENCODING 233
SWIDTH 600 0
DWIDTH 8 0
BBX 7 9 1 0
BITMAP
EE
44
44
4C
54
54
64
44
EE
ENDCHAR
STARTCHAR afii10027
ENCODING 234
SWIDTH 600 0
DWIDTH 8 0
BBX 7 11 1 0
BITMAP
28
10
EE
44
44
4C
54
54
64
44
EE
ENDCHAR
STARTCHAR afii10028
ENCODING 235
SWIDTH 600 0
DWIDTH 8 0
BBX 7 9 1 0
BITMAP
E6
44
48
48
50
70
48
44
E6
ENDCHAR
STARTCHAR afii10029
ENCODING 236
SWIDTH 600 0
DWIDTH 8 0
BBX 7 9 1 0
BITMAP
7E
24
24
24
24
24
24
A4
CE
ENDCHAR
STARTCHAR afii10030
ENCODING 237
SWIDTH 600 0
DWIDTH 8 0
BBX 7 9 1 0
BITMAP
C6
44
6C
6C
54
54
44
44
EE
ENDCHAR
STARTCHAR afii10031
ENCODING 238
SWIDTH 600 0
DWIDTH 8 0
BBX 7 9 1 0
BITMAP
EE
44
44
44
7C
44
44
44
EE
ENDCHAR
STARTCHAR afii10032
ENCODING 239
SWIDTH 600 0
DWIDTH 8 0
BBX 7 9 1 0
BITMAP
38
44
82
82
82
82
82
44
38
ENDCHAR
STARTCHAR afii10033
ENCODING 240
SWIDTH 600 0
DWIDTH 8 0
BBX 7 9 1 0
BITMAP
FE
44
44
44
44
44
44
44
EE
ENDCHAR
STARTCHAR afii10049
ENCODING 241
SWIDTH 600 0
DWIDTH 8 0
BBX 7 9 1 0
BITMAP
7E
84
84
84
7C
24
44
44
CE
ENDCHAR
STARTCHAR afii10034
ENCODING 242
SWIDTH 600 0
DWIDTH 8 0
BBX 7 9 1 0
BITMAP
FC
42
42
42
7C
40
40
40
E0
ENDCHAR
STARTCHAR afii10035
ENCODING 243
SWIDTH 600 0
DWIDTH 8 0
BBX 7 9 1 0
BITMAP
3A
46
82
80
80
80
82
42
3C
ENDCHAR
STARTCHAR afii10036
ENCODING 244
SWIDTH 600 0
DWIDTH 8 0
BBX 7 9 1 0
BITMAP
FE
92
10
10
10
10
10
10
38
ENDCHAR
STARTCHAR afii10037
ENCODING 245
SWIDTH 600 0
DWIDTH 8 0
BBX 7 9 1 0
BITMAP
EE
44
44
28
28
10
10
90
60
ENDCHAR
STARTCHAR afii10024
ENCODING 246
SWIDTH 600 0
DWIDTH 8 0
BBX 7 9 1 0
BITMAP
D6
54
54
54
38
54
54
54
D6
ENDCHAR
STARTCHAR afii10019
ENCODING 247
SWIDTH 600 0
DWIDTH 8 0
BBX 7 9 1 0
BITMAP
FC
42
42
42
7C
42
42
42
FC
ENDCHAR
STARTCHAR afii10046
ENCODING 248
SWIDTH 600 0
DWIDTH 8 0
BBX 7 9 1 0
BITMAP
E0
40
40
40
7C
42
42
42
FC
ENDCHAR
STARTCHAR afii10045
ENCODING 249
SWIDTH 600 0
DWIDTH 8 0
BBX 8 9 0 0
BITMAP
E7
42
42
42
72
4A
4A
4A
F7
ENDCHAR
STARTCHAR afii10025
ENCODING 250
SWIDTH 600 0
DWIDTH 8 0
BBX 6 9 1 0
BITMAP
B8
C4
84
04
38
04
84
84
78
ENDCHAR
STARTCHAR afii10042
ENCODING 251
SWIDTH 600 0
DWIDTH 8 0
BBX 7 9 1 0
BITMAP
D6
54
54
54
54
54
54
54
FE
ENDCHAR
STARTCHAR afii10047
ENCODING 252
SWIDTH 600 0
DWIDTH 8 0
BBX 6 9 1 0
BITMAP
70
88
04
04
7C
04
04
88
70
ENDCHAR
STARTCHAR afii10043
ENCODING 253
SWIDTH 600 0
DWIDTH 8 0
BBX 7 10 1 -1
BITMAP
D6
54
54
54
54
54
54
54
FE
02
ENDCHAR
STARTCHAR afii10041
ENCODING 254
SWIDTH 600 0
DWIDTH 8 0
BBX 7 9 1 0
BITMAP
EE
44
44
44
4C
34
04
04
0E
ENDCHAR
STARTCHAR afii10044
ENCODING 255
SWIDTH 600 0
DWIDTH 8 0
BBX 7 9 1 0
BITMAP
F0
A0
A0
20
3C
22
22
22
7C
ENDCHAR
ENDFONT
